<svg t="1637925779079" class="icon" viewBox="0 0 1024 1024" version="1.1" xmlns="http://www.w3.org/2000/svg" p-id="20437" width="128" height="128"><path d="M681.2 923.5H277.3c-30.8 0-56-25.2-56-56V653c0-75.9 99.3-149.1 175.2-149.1L480.8 625l85.5-121.2c75.9 0 170.9 73.2 170.9 149.1v214.5c0 30.8-25.2 56.1-56 56.1z" fill="#6E83B7" p-id="20438"></path><path d="M566.3 503.8c75.9 0 170.9 73.2 170.9 149.1v214.5c0 30.8-25.2 56-56 56H277.3c-30.8 0-56-25.2-56-56V652.9c0-75.9 99.3-149.1 175.2-149.1L480.8 625l85.5-121.2m0-7.1h-3.7l-2.1 3-79.6 112.9-78.6-112.8-2.1-3.1h-3.7c-79.6 0-182.3 75.7-182.3 156.2v214.5c0 34.8 28.3 63.2 63.2 63.2h403.9c34.8 0 63.2-28.3 63.2-63.2V652.9c-0.1-80.5-100.5-156.2-178.2-156.2z" fill="#333333" p-id="20439"></path><path d="M322.3 923.5h309.6v-404c-21.7-9.9-44.4-15.6-65.6-15.6L480.8 625l-84.4-121.2c-23.7 0-49.6 7.1-74.1 19.2v400.5z" fill="#EFF2FA" p-id="20440"></path><path d="M566.3 503.8c21.2 0 43.9 5.7 65.6 15.6v404H322.3V523.1c24.5-12.1 50.5-19.2 74.1-19.2L480.8 625l85.5-121.2m0-7.1h-3.7l-2.1 3-79.6 112.9-78.6-112.8-2.1-3.1h-3.7c-24.1 0-50.9 6.9-77.3 20l-4 2v411.9H639V514.9l-4.2-1.9c-23.3-10.7-47-16.3-68.5-16.3z" fill="#333333" p-id="20441"></path><path d="M471.3 626.9h26.5v296.7h-26.5z" fill="#E4EAF6" p-id="20442"></path><path d="M548.5 627.4H415.4c-4.3 0-7.8-3.5-7.8-7.8V402.5c0-4.3 3.5-7.8 7.8-7.8h133.1c4.3 0 7.8 3.5 7.8 7.8v217.1c0 4.3-3.5 7.8-7.8 7.8z" fill="#F2C3A2" p-id="20443"></path><path d="M482 394.6c40.9 0 74.4 33.5 74.4 74.4v84c0 40.9-33.5 74.4-74.4 74.4-40.9 0-74.4-33.5-74.4-74.4v-84c0-40.9 33.5-74.4 74.4-74.4m0-7.1c-44.9 0-81.5 36.6-81.5 81.5v84c0 44.9 36.6 81.5 81.5 81.5s81.5-36.6 81.5-81.5v-84c0-44.9-36.6-81.5-81.5-81.5z" fill="#333333" p-id="20444"></path><path d="M645 295.9c0-19.1-9.4-35.4-22.5-41.3V184c0-76.6-62.7-102-139.4-102-76.6 0-139.4 25.4-139.4 102v77.2c-13.9 5.3-24.1 22-24.1 41.9s10.2 36.6 24.1 41.9v3c16.5 77.2 81.1 139.9 139.4 139.4 64.5-3.7 121-71.4 139.4-139.4v-10.9c13-5.8 22.5-22 22.5-41.2z" fill="#F9D4B7" p-id="20445"></path><path d="M483.1 82.1c76.6 0 139.4 25.4 139.4 102v70.6c13.1 5.9 22.5 22.1 22.5 41.3 0 19.1-9.4 35.4-22.5 41.3v10.9c-18.3 68-74.9 135.7-139.4 139.4h-0.8c-58.1 0-122.2-62.6-138.6-139.4v-3c-13.9-5.3-24.1-22-24.1-41.9s10.2-36.6 24.1-41.9v-77.2c0-76.7 62.7-102.1 139.4-102.1m0-7.1c-95.8 0-146.5 37.7-146.5 109.1v72.6c-14.6 8-24.1 26-24.1 46.4 0 20.6 9.6 38.6 24.3 46.6 16.8 78.5 83.4 144.8 145.5 144.8h0.9c70.8-4 128.1-77.5 146.2-144.6l0.2-0.9v-7.5c13.6-8.4 22.5-26.1 22.5-45.5s-8.9-37.1-22.5-45.5v-66.3c0-71.5-50.7-109.2-146.5-109.2z" fill="#333333" p-id="20446"></path><path d="M400.5 503.8l73.4 126s-31.4 6.7-73.2 26.7c-8.6 4.1-18.6-1.6-20-11.8l-17.7-137 20.7-6.7c9.1-2.4 13.1-3.5 16.8 2.8z" fill="#E4EAF6" p-id="20447"></path><path d="M393.3 499.1c3 0 5.1 1.2 7.1 4.7l73.4 126s-31.4 6.7-73.2 26.7c-1.9 0.9-3.9 1.3-5.8 1.3-6.8 0-13-5.2-14.1-13.1l-17.7-137 20.7-6.7c4.1-1.1 7.2-1.9 9.6-1.9m0-7.1c-3.5 0-7.2 1-11.5 2.2l-21 6.8-5.7 1.8 0.8 5.9 17.6 136.9c1.6 11.2 10.5 19.3 21.2 19.3 3.1 0 6.1-0.7 8.9-2 40.4-19.4 71.3-26.1 71.6-26.2l9.6-2.1-5-8.5-73.4-126c-3-5.4-7.3-8.1-13.1-8.1z" fill="#333333" p-id="20448"></path><path d="M559.4 503.2l-73.4 126s31.4 6.7 73.2 26.7c8.6 4.1 18.6-1.6 20-11.8l17.6-136.9-20.7-6.7c-9-2.5-13.1-3.5-16.7 2.7z" fill="#E4EAF6" p-id="20449"></path><path d="M566.5 498.6c2.5 0 5.5 0.8 9.6 1.9l20.7 6.7-17.6 136.9c-1.1 7.9-7.4 13.1-14.1 13.1-1.9 0-3.9-0.4-5.8-1.3-41.8-20-73.2-26.7-73.2-26.7l73.4-126c1.9-3.4 4-4.6 7-4.6m0-7.2c-5.7 0-10.1 2.7-13.3 8.2l-73.4 126-5 8.5 9.6 2.1c0.3 0.1 31.2 6.8 71.6 26.2 2.8 1.4 5.8 2 8.9 2 10.7 0 19.6-8.1 21.2-19.2l17.6-137 0.8-5.9-5.7-1.8-20.7-6.7c-4.4-1.4-8.1-2.4-11.6-2.4z" fill="#333333" p-id="20450"></path><path d="M319.6 303.2c0 19.9 10.2 36.6 24.1 41.9v3c3.2 15.2 8.4 29.8 15 43.5l22.4 35.6c-10.7-65-12.8-125.3 5.6-174.4l11.3-31.9 182.4 1.1 42 116 0.1-0.1v-0.5c1.2-0.5 2.3-1.2 3.4-1.9 1.1-0.8 2.2-1.5 3.2-2.3 9.5-7.7 15.9-21.3 15.9-37 0-19.1-9.4-35.4-22.5-41.3v-70.6c0-4.3-0.3-8.4-0.7-12.5-0.1-1.3-0.3-2.5-0.5-3.7-0.4-2.8-0.8-5.4-1.3-8-0.3-1.3-0.5-2.5-0.8-3.8-0.7-2.7-1.5-5.3-2.4-7.8-0.3-0.8-0.5-1.7-0.8-2.6-1.2-3.1-2.6-6.1-4.1-9-0.6-1.1-1.2-2.1-1.8-3.2-1.1-1.8-2.2-3.6-3.3-5.3-0.8-1.2-1.6-2.3-2.5-3.4-1.2-1.6-2.5-3-3.8-4.5-0.9-1-1.7-2-2.7-2.9l-0.4-0.4c-16.4 3.1-34.1 2.6-39 0.6-22.4-9.4-47.7-14.2-74.5-14.2-51.7 4.4-102.3 11.6-139.5 68.1-0.4 4.1-0.7 8.3-0.7 12.7v77.2c-13.9 5-24.1 21.7-24.1 41.6z" fill="#F2C3A2" p-id="20451"></path><path d="M611.8 104.5c-7-9.6-24-10.4-27.4-7.4-4.3-14.9-28.9-27.8-106-28.5-85.2-0.8-153.4 61-162.2 130.2-3.2 10.5 7.5 72.1 7.5 72.1 7.6-12.2 13.5-17.5 18.4-17.8l0.7-0.5v36.2c0 7.1 5.8 12.9 12.9 12.9l9.5-73.5-3.6-31.9 237.8-1.8c-0.2 0.9-0.4 32.3-0.4 33.3l12.9 74c7.1 0 12.9-5.8 12.9-12.9v-36.7s11.7-2.3 17.7 9.6c19.1-101.2-32.6-159.7-30.7-157.3z" fill="#666666" p-id="20452"></path><path d="M476.8 68.6h1.5c77.1 0.7 101.7 13.6 106 28.5 1.1-1 3.7-1.6 6.8-1.6 6.6 0 15.8 2.5 20.5 8.9l0.1 0.1-0.1-0.1c0.2 0 49.5 58.2 30.7 157.3-4.3-8.6-11.6-9.8-15.4-9.8-1.4 0-2.3 0.2-2.3 0.2v36.7c0 7.1-5.8 12.9-12.9 12.9l-12.9-74c0-1 0.1-32.3 0.4-33.3l-237.8 1.8 3.6 31.9-9.5 73.5c-7.1 0-12.9-5.8-12.9-12.9v-36.2l-0.7 0.5c-4.8 0.3-10.7 5.6-18.4 17.8 0 0-10.7-61.6-7.5-72.1 8.9-68.7 76.4-130.1 160.8-130.1m0-7.2c-84.2 0-157.8 59.7-167.7 136-2.9 12.5 5 60.1 7.5 74.7l3.2 18.4 9.9-15.8c2.3-3.6 4.2-6.3 5.8-8.4v22.5c0 11.1 9 20 20 20h6.3l0.8-6.2 9.5-73.5 0.1-0.9-0.1-0.9-2.7-24 222.5-1.7c-0.2 10.3-0.2 25.8-0.2 26.1v0.6l0.1 0.6 12.9 74 1 5.9h6c11.1 0 20-9 20-20v-28.5c1.7 1 3.1 2.5 4.2 4.7l9.5 18.8 3.9-20.7c18.9-100-29.7-160.2-31.8-162.7-0.1-0.1-0.2-0.3-0.4-0.5-6.5-8.4-18-11.4-26-11.4-1 0-2 0-3 0.1-11.2-17.9-46.5-26.6-109.7-27.1l-1.6-0.1z" fill="#333333" p-id="20453"></path><path d="M811.1 281.8c-60.8 5.9-105.4 60.1-99.5 120.9 0.8 8.1 2.5 15.9 4.9 23.4l-28.4 28.1c-3.5 3.4-0.8 9.4 4.1 9l42.3-3.2c22.5 28.8 58.8 46 97.9 42.2 60.9-5.9 105.4-60.1 99.5-120.9S872 275.9 811.1 281.8z" fill="#7183B3" p-id="20454"></path><path d="M822 288.4c53.5 0 97.7 40.2 102.9 93.5 5.5 56.8-36.2 107.6-93 113.1-3.4 0.3-6.8 0.5-10.1 0.5-32 0-61.7-14.6-81.5-39.9l-6.2-2.7-37.2 2.8 24.8-24.5 1.8-7.3c-2.3-7.2-3.9-14.6-4.6-21.9-5.5-56.8 36.2-107.6 93-113.1 3.3-0.3 6.7-0.5 10.1-0.5m0-7.1c-3.6 0-7.2 0.2-10.9 0.5-60.8 5.9-105.4 60.1-99.5 120.9 0.8 8.1 2.5 15.9 4.9 23.4l-28.4 28.1c-3.4 3.3-0.9 9 3.7 9h0.4l42.3-3.2c20.4 26.2 52.2 42.7 87.1 42.7 3.6 0 7.2-0.2 10.8-0.5 60.8-5.9 105.4-60.1 99.5-120.9-5.4-57.2-53.6-100-109.9-100z" fill="#333333" p-id="20455"></path><path d="M796.4 412.7l-29.8-16.9c-1.6-0.9-2.6-2.6-2.6-4.5v-2.1c0-1.8 0.9-3.5 2.5-4.4l29.8-17.9c3.4-2.1 7.8 0.4 7.8 4.4 0 1.9-1 3.6-2.7 4.5l-26 14.2v0.3l25.9 13.2c1.7 0.9 2.8 2.7 2.8 4.6v0.1c0 4-4.3 6.5-7.7 4.5zM844.4 351.5l-26.5 78.3c-0.8 2.2-2.8 3.7-5.2 3.7-3.8 0-6.4-3.7-5.2-7.2l26.4-78.3c0.8-2.2 2.8-3.7 5.2-3.7h0.1c3.7 0 6.4 3.6 5.2 7.2zM886.4 395.2l-29.7 16.9c-3.4 2-7.7-0.5-7.7-4.5v-0.1c0-1.9 1.1-3.7 2.8-4.6l26-13.1v-0.3l-26.1-14.2c-1.7-0.9-2.7-2.6-2.7-4.5 0-4 4.4-6.5 7.8-4.4l29.7 17.8c1.6 0.9 2.5 2.6 2.5 4.4v2.1c0 1.8-1 3.6-2.6 4.5z" fill="#FFFFFF" p-id="20456"></path><path d="M546.2 272.5c1.2 0 2.3 0 3.7 0.1 30.5 0.4 41.6 4.2 43.6 14.9 1.9 25.6-2.7 46.6-11.3 51.4-5.5 2.6-15.5 4.1-26.7 4.1-17.4 0-31.3-3.4-34.3-5.4l-0.3-0.2-0.3-0.2c-12.2-7.7-16.8-28.1-17.1-44.9 1.4-19.3 38.5-19.8 42.7-19.8m0-14.4c-25.3 0-55.9 7.8-57.1 33.9 0.2 16.2 4.2 45.1 23.8 57.4 6.6 4.6 24.7 8 42.5 8 12.5 0 24.8-1.6 33.1-5.6 18.5-9.6 21.1-42 19.2-66-3.9-25.2-31.5-27.2-57.7-27.5-1.2-0.2-2.5-0.2-3.8-0.2zM422.9 272.5c4.2 0 41.3 0.6 42.7 19.8-0.3 16.8-4.9 37.2-17.1 44.9l-0.5 0.3-0.1 0.1c-2.9 1.9-16.9 5.4-34.3 5.4-11.2 0-21.1-1.5-26.7-4.1-8.7-4.8-13.3-25.8-11.3-51.4 2-10.7 13.1-14.5 43.8-14.9 1.2-0.1 2.3-0.1 3.5-0.1m0-14.4c-1.3 0-2.6 0-3.9 0.1-26.2 0.4-53.7 2.3-57.7 27.5-1.9 24 0.7 56.4 19.2 66 8.3 4 20.7 5.6 33.1 5.6 17.8 0 35.9-3.3 42.5-8 19.6-12.3 23.7-41.2 23.8-57.4-1.1-26-31.7-33.8-57-33.8z" fill="#6E83B7" p-id="20457"></path><path d="M512.6 277.1h-55.9c-4 0-7.2-3.2-7.2-7.2s3.2-7.2 7.2-7.2h55.9c4 0 7.2 3.2 7.2 7.2s-3.3 7.2-7.2 7.2z" fill="#6E83B7" p-id="20458"></path></svg>